# xmcd
#
# Track frame offsets: 
#        150
#        24646
#        47780
#        69169
#        85422
#        104418
#        127641
#        145982
#        165939
#        186816
#        209932
#        232481
#
# Disc length: 3351 seconds
#
# Revision: 1
# Processed by: cddbd v1.5.2PL0 Copyright (c) Steve Scherf et al.
# Submitted via: ExactAudioCopy v1.0b3
#
DISCID=ab0d150c
DTITLE=伍国忠 - DTS ES 正品 名家民乐-笛子
DYEAR=2009
DGENRE=DTS ES
TTITLE0=向往神鹰
TTITLE1=多彩的哈达
TTITLE2=西藏之恋
TTITLE3=月光下的布达拉 
TTITLE4=梦中的唐古拉
TTITLE5=卓玛
TTITLE6=走出喜马拉雅
TTITLE7=水中月亮
TTITLE8=香巴拉并不遥远
TTITLE9=花湖
TTITLE10=天上西藏
TTITLE11=坐上火车去拉萨
EXTD=
EXTT0=
EXTT1=
EXTT2=
EXTT3=
EXTT4=
EXTT5=
EXTT6=
EXTT7=
EXTT8=
EXTT9=
EXTT10=
EXTT11=
PLAYORDER=
